TITLE ""
FILE "TOEIC LR Kinnojyukugo_12.mp3" MP3
  TRACK 01 AUDIO
    TITLE "TOEIC LR Kinnojyukugo_12_01"
    INDEX 01 00:00:00
  TRACK 02 AUDIO
    TITLE "TOEIC LR Kinnojyukugo_12_02"
    INDEX 01 00:00:12
  TRACK 03 AUDIO
    TITLE "TOEIC LR Kinnojyukugo_12_03"
    INDEX 01 00:01:16
  TRACK 04 AUDIO
    TITLE "TOEIC LR Kinnojyukugo_12_04"
    INDEX 01 00:01:47
  TRACK 05 AUDIO
    TITLE "TOEIC LR Kinnojyukugo_12_05"
    INDEX 01 00:03:54
  TRACK 06 AUDIO
    TITLE "TOEIC LR Kinnojyukugo_12_06"
    INDEX 01 00:04:55
  TRACK 07 AUDIO
    TITLE "TOEIC LR Kinnojyukugo_12_07"
    INDEX 01 00:05:49
  TRACK 08 AUDIO
    TITLE "TOEIC LR Kinnojyukugo_12_08"
    INDEX 01 00:06:13
  TRACK 09 AUDIO
    TITLE "TOEIC LR Kinnojyukugo_12_09"
    INDEX 01 00:08:24
  TRACK 10 AUDIO
    TITLE "TOEIC LR Kinnojyukugo_12_10"
    INDEX 01 00:09:25
  TRACK 11 AUDIO
    TITLE "TOEIC LR Kinnojyukugo_12_11"
    INDEX 01 00:10:34
  TRACK 12 AUDIO
    TITLE "TOEIC LR Kinnojyukugo_12_12"
    INDEX 01 00:10:73
  TRACK 13 AUDIO
    TITLE "TOEIC LR Kinnojyukugo_12_13"
    INDEX 01 00:13:64
  TRACK 14 AUDIO
    TITLE "TOEIC LR Kinnojyukugo_12_14"
    INDEX 01 00:14:63
  TRACK 15 AUDIO
    TITLE "TOEIC LR Kinnojyukugo_12_15"
    INDEX 01 00:15:71
  TRACK 16 AUDIO
    TITLE "TOEIC LR Kinnojyukugo_12_16"
    INDEX 01 00:16:35
  TRACK 17 AUDIO
    TITLE "TOEIC LR Kinnojyukugo_12_17"
    INDEX 01 00:18:59
  TRACK 18 AUDIO
    TITLE "TOEIC LR Kinnojyukugo_12_18"
    INDEX 01 00:19:61
  TRACK 19 AUDIO
    TITLE "TOEIC LR Kinnojyukugo_12_19"
    INDEX 01 00:20:68
  TRACK 20 AUDIO
    TITLE "TOEIC LR Kinnojyukugo_12_20"
    INDEX 01 00:21:24
  TRACK 21 AUDIO
    TITLE "TOEIC LR Kinnojyukugo_12_21"
    INDEX 01 00:24:09
  TRACK 22 AUDIO
    TITLE "TOEIC LR Kinnojyukugo_12_22"
    INDEX 01 00:25:08
  TRACK 23 AUDIO
    TITLE "TOEIC LR Kinnojyukugo_12_23"
    INDEX 01 00:26:33
  TRACK 24 AUDIO
    TITLE "TOEIC LR Kinnojyukugo_12_24"
    INDEX 01 00:26:68
  TRACK 25 AUDIO
    TITLE "TOEIC LR Kinnojyukugo_12_25"
    INDEX 01 00:29:28
  TRACK 26 AUDIO
    TITLE "TOEIC LR Kinnojyukugo_12_26"
    INDEX 01 00:30:37
  TRACK 27 AUDIO
    TITLE "TOEIC LR Kinnojyukugo_12_27"
    INDEX 01 00:31:50
  TRACK 28 AUDIO
    TITLE "TOEIC LR Kinnojyukugo_12_28"
    INDEX 01 00:32:08
  TRACK 29 AUDIO
    TITLE "TOEIC LR Kinnojyukugo_12_29"
    INDEX 01 00:34:46
  TRACK 30 AUDIO
    TITLE "TOEIC LR Kinnojyukugo_12_30"
    INDEX 01 00:35:56
  TRACK 31 AUDIO
    TITLE "TOEIC LR Kinnojyukugo_12_31"
    INDEX 01 00:36:59
  TRACK 32 AUDIO
    TITLE "TOEIC LR Kinnojyukugo_12_32"
    INDEX 01 00:37:23
  TRACK 33 AUDIO
    TITLE "TOEIC LR Kinnojyukugo_12_33"
    INDEX 01 00:39:28
  TRACK 34 AUDIO
    TITLE "TOEIC LR Kinnojyukugo_12_34"
    INDEX 01 00:40:27
  TRACK 35 AUDIO
    TITLE "TOEIC LR Kinnojyukugo_12_35"
    INDEX 01 00:41:39
  TRACK 36 AUDIO
    TITLE "TOEIC LR Kinnojyukugo_12_36"
    INDEX 01 00:41:72
  TRACK 37 AUDIO
    TITLE "TOEIC LR Kinnojyukugo_12_37"
    INDEX 01 00:44:33
  TRACK 38 AUDIO
    TITLE "TOEIC LR Kinnojyukugo_12_38"
    INDEX 01 00:45:33
  TRACK 39 AUDIO
    TITLE "TOEIC LR Kinnojyukugo_12_39"
    INDEX 01 00:46:55
  TRACK 40 AUDIO
    TITLE "TOEIC LR Kinnojyukugo_12_40"
    INDEX 01 00:47:18
  TRACK 41 AUDIO
    TITLE "TOEIC LR Kinnojyukugo_12_41"
    INDEX 01 00:49:54
